# xmcd
#
# Track frame offsets:
#	150
#	13370
#	32755
#	47688
#	64720
#	90768
#	104260
#	123220
#	135805
#	158873
#
# Disc length: 2434
#
# Revision: 3
# Processed by: cddbd v1.5.1PL0 Copyright (c) Steve Scherf et al.
# Submitted via: CDex 1.51
# Normalized: r2:TDELIM( - )
#
DISCID=7109800a
DTITLE=Various Artist - Horn Rock Bands
DYEAR=1996
DGENRE=Blues
TTITLE0=The Ides of March - Vehicle
TTITLE1=Blood, Sweat and Tears - You've Made Me So Very Happy
TTITLE2=Sons of Champlin - Welcome to the Dance
TTITLE3=Edgar Winter Group - Keep Playin' That Rock 'n' Roll
TTITLE4=Cold Blood - You've Got Me Hummin'
TTITLE5=Chase - Get It On
TTITLE6=Electric Flag - Killing Floor
TTITLE7=The Elvin Bishop Group - Rock My Soul
TTITLE8=Tower of Power - What Is Hip?
TTITLE9=Lighthouse - One Fine Morning
EXTD=YEAR: 1996
EXTT0=
EXTT1=
EXTT2=
EXTT3=
EXTT4=
EXTT5=
EXTT6=
EXTT7=
EXTT8=
EXTT9=
PLAYORDER=
